<svg height="511.90356pt" viewBox="0 0 511.90356 511.90356" width="511.90356pt" xmlns="http://www.w3.org/2000/svg"><path d="m503.125 244.121094-27.71875-11.472656c-1.40625-13.246094-4.003906-26.332032-7.769531-39.109376l21.1875-21.273437c4.246093-3.421875 5.730469-9.226563 3.648437-14.269531-2.078125-5.039063-7.230468-8.105469-12.652344-7.535156l-30.015624-.085938c-6.394532-11.667969-13.808594-22.746094-22.15625-33.105469l11.476562-27.71875c2.632812-4.8125 1.773438-10.785156-2.105469-14.667969-3.878906-3.878906-9.851562-4.734374-14.667969-2.101562l-27.71875 11.472656c-10.359374-8.347656-21.4375-15.761718-33.101562-22.15625l-.089844-30.011718c.570313-5.425782-2.496094-10.574219-7.535156-12.65625-5.039062-2.082032-10.847656-.59375-14.269531 3.648437l-21.273438 21.1875c-12.773437-3.761719-25.863281-6.363281-39.105469-7.769531l-11.476562-27.714844c-1.578125-5.214844-6.382812-8.78125-11.828125-8.78125-5.449219 0-10.253906 3.566406-11.832031 8.78125l-11.472656 27.714844c-13.246094 1.40625-26.332032 4.007812-39.109376 7.769531l-21.273437-21.1875c-3.421875-4.242187-9.226563-5.730469-14.269531-3.648437-5.039063 2.082031-8.105469 7.230468-7.535156 12.65625l-.085938 30.011718c-11.667969 6.394532-22.746094 13.808594-33.105469 22.15625l-27.71875-11.472656c-4.8125-2.632812-10.785156-1.777344-14.667969 2.101562-3.878906 3.882813-4.734374 9.855469-2.101562 14.667969l11.472656 27.71875c-8.347656 10.359375-15.761718 21.4375-22.15625 33.105469l-30.011718.085938c-5.425782-.570313-10.574219 2.496093-12.65625 7.535156-2.082032 5.042968-.59375 10.847656 3.648437 14.269531l21.1875 21.273437c-3.761719 12.777344-6.363281 25.863282-7.769531 39.109376l-27.714844 11.472656c-5.214844 1.578125-8.78125 6.382812-8.78125 11.832031 0 5.445313 3.566406 10.25 8.78125 11.828125l27.714844 11.476562c1.40625 13.242188 4.007812 26.332032 7.769531 39.105469l-21.1875 21.273438c-4.242187 3.421875-5.730469 9.230469-3.648437 14.269531 2.082031 5.039062 7.230468 8.105469 12.65625 7.535156l30.011718.089844c6.394532 11.664062 13.808594 22.742188 22.15625 33.101562l-11.472656 27.71875c-2.632812 4.816407-1.777344 10.789063 2.101562 14.667969 3.882813 3.878907 9.855469 4.738281 14.667969 2.105469l27.71875-11.476562c10.359375 8.347656 21.4375 15.761718 33.105469 22.15625l.085938 30.015624c-.570313 5.421876 2.496093 10.574219 7.535156 12.652344 5.042968 2.082032 10.847656.597656 14.269531-3.648437l21.273437-21.1875c12.777344 3.765625 25.863282 6.363281 39.109376 7.769531l11.472656 27.71875c1.578125 5.210938 6.382812 8.777344 11.832031 8.777344 5.445313 0 10.25-3.566406 11.828125-8.777344l11.476562-27.71875c13.242188-1.40625 26.332032-4.003906 39.105469-7.769531l21.273438 21.1875c3.421875 4.246093 9.230469 5.730469 14.269531 3.648437 5.039062-2.078125 8.105469-7.230468 7.535156-12.652344l.089844-30.015624c11.664062-6.394532 22.742188-13.808594 33.101562-22.15625l27.71875 11.476562c4.816407 2.632812 10.789063 1.773438 14.667969-2.105469 3.878907-3.878906 4.738281-9.851562 2.105469-14.667969l-11.476562-27.71875c8.347656-10.359374 15.761718-21.4375 22.15625-33.101562l30.015624-.089844c5.421876.570313 10.574219-2.496094 12.652344-7.535156 2.082032-5.039062.597656-10.847656-3.648437-14.269531l-21.1875-21.273438c3.765625-12.773437 6.363281-25.863281 7.769531-39.105469l27.71875-11.476562c5.210938-1.578125 8.777344-6.382812 8.777344-11.828125 0-5.449219-3.566406-10.253906-8.777344-11.832031zm0 0" fill="#bdc3c7"/><path d="m441.332031 255.953125c0 102.378906-83 185.378906-185.378906 185.378906-102.382813 0-185.378906-83-185.378906-185.378906 0-102.382813 82.996093-185.378906 185.378906-185.378906 102.378906 0 185.378906 82.996093 185.378906 185.378906zm0 0" fill="#e6e7e8"/><path d="m317.304688 89.640625c-21.839844 4.546875-60.292969 21.460937-94.324219 82.441406-2.199219 4.011719-5.914063 6.976563-10.316407 8.226563-4.402343 1.253906-9.121093.6875-13.101562-1.570313l-.195312-.117187c-20.832032-12.003906-52.964844 4.503906-71.679688 36.988281-10.414062 16.738281-14.617188 36.605469-11.863281 56.125.828125 4.136719-.027344 8.433594-2.378907 11.933594-2.351562 3.5-6.007812 5.917969-10.148437 6.710937-8.46875 1.554688-17.089844 2.105469-25.6875 1.640625-2.058594-.117187-3.765625-1.625-4.132813-3.652343-1.769531-9.710938-2.738281-19.546876-2.902343-29.414063-1.441407-87.1875 58.039062-163.609375 142.917969-183.613281 34.601562-7.972656 70.753906-5.953125 104.253906 5.824218 1.859375.640626 3.074218 2.4375 2.972656 4.40625-.105469 1.964844-1.496094 3.625-3.414062 4.070313zm0 0" fill="#c03a2b"/><path d="m441.269531 260.832031c-1.582031 59.277344-31.414062 114.222657-80.261719 147.835938-48.847656 33.617187-110.824218 41.847656-166.753906 22.148437-1.902344-.722656-3.058594-2.65625-2.804687-4.675781.257812-2.019531 1.859375-3.605469 3.882812-3.832031 28.710938-3.609375 55.882813-15.011719 78.566407-32.972656 13.949218-11.175782 25.765624-24.78125 34.867187-40.164063 10.417969-17.480469 16.246094-37.339844 26.574219-54.910156 20.777344-35.308594 56.960937-65.835938 98.320312-72.5625 2.425782-.363281 4.695313 1.269531 5.128906 3.683593 1.980469 11.707032 2.808594 23.582032 2.480469 35.449219zm0 0" fill="#285680"/><g fill="#e64c3c"><path d="m174.589844 394.359375c-4.976563-.011719-9.9375-.578125-14.789063-1.6875-8.875-1.449219-16.507812-7.089844-20.503906-15.148437-4.210937-12.144532-2.839844-25.527344 3.742187-36.570313.21875-.425781 23.3125-39.105469 41.011719-39.726563 4.898438-.179687 9.503907 2.34375 11.988281 6.570313 6.871094 12.957031 6.371094 28.582031-1.304687 41.074219-1.671875 2.679687-4.644531 4.265625-7.800781 4.160156s-6.019532-1.886719-7.503906-4.671875c-1.488282-2.789063-1.375-6.15625.296874-8.835937 3.371094-5.816407 4.359376-12.714844 2.753907-19.246094-9.234375 8.425781-17.234375 18.109375-23.773438 28.761718-3.964843 6.226563-5.191406 13.808594-3.390625 20.964844.460938.988282 1.871094 3.980469 8.40625 5.4375 39.785156 8.996094 60.636719-33.808594 66.074219-47.148437 7.300781-18 6.859375-27.460938 5.207031-32.21875-1.101562-2.996094-.5-6.355469 1.570313-8.78125 2.074219-2.429688 5.296875-3.546875 8.429687-2.925781 3.128906.617187 5.683594 2.878906 6.675782 5.914062 3.910156 11.246094 2.101562 25.855469-5.527344 44.667969-15.589844 38.117187-41.664063 59.410156-71.5625 59.410156zm0 0"/><path d="m235.914062 292.144531c-2.082031 0-4.09375-.734375-5.6875-2.074219-.4375-.308593-.898437-.585937-1.375-.828124-6.175781-1.875-12.71875-2.226563-19.058593-1.027344l-10.003907.839844c-14.597656 2-29.421874 1.609374-43.898437-1.148438-9.652344-1.390625-17.777344-7.941406-21.1875-17.078125-6.425781-19.644531 13.332031-45.359375 34.128906-70.003906 3.546875-4.683594 8.859375-7.703125 14.699219-8.351563 4.753906-.300781 9.414062 1.417969 12.835938 4.730469 9.382812 8.351563 12.171874 23.960937 13.839843 33.28125.644531 3.140625-.46875 6.382813-2.898437 8.46875-2.433594 2.085937-5.804688 2.691406-8.8125 1.578125-3.003906-1.109375-5.171875-3.761719-5.660156-6.929688-.714844-8.335937-3.558594-16.34375-8.265626-23.261718 0-.273438-.976562.363281-2.242187 1.863281-9.496094 11.273437-34.742187 41.199219-30.84375 53.125.789063 2.410156 3.675781 4.234375 8.582031 5.410156 12.632813 2.289063 25.550782 2.53125 38.257813.722657l9.914062-.828126c9.636719-1.710937 19.554688-.710937 28.65625 2.886719 1.6875.835938 3.277344 1.859375 4.738281 3.042969 2.84375 2.394531 3.882813 6.308594 2.601563 9.796875s-4.605469 5.800781-8.320313 5.785156zm0 0"/><path d="m255.371094 306.859375c-16.164063 0-30.015625-15.554687-32.117188-36.660156-2.082031-22.199219 9.710938-40.890625 26.925782-42.566407 9.109374-.589843 17.941406 3.269532 23.699218 10.355469.277344.320313.53125.660157.761719 1.015625 1.855469 2.84375 1.914063 6.503906.148437 9.410156 2.871094.097657 5.507813 1.59375 7.0625 4.007813v.070313c.4375.671874.777344 1.402343 1.015626 2.171874.921874 3.058594 1.550781 6.195313 1.878906 9.375 2.101562 22.339844-9.710938 41.019532-26.90625 42.699219-.820313.082031-1.644532.125-2.46875.121094zm-2.863282-61.6875c-.21875 0-.441406 0-.660156 0-6.179687.601563-12.246094 10.320313-11.015625 23.296875 1.226563 12.976562 9.046875 21.335938 15.289063 20.664062 6.238281-.667968 12.285156-10.328124 11.058594-23.292968-.195313-1.957032-.566407-3.894532-1.113282-5.785156-.828125-2.472657-.53125-5.1875.8125-7.421876-2.550781-.101562-4.929687-1.316406-6.511718-3.320312-1.953126-2.386719-4.785157-3.878906-7.859376-4.140625zm0 0"/><path d="m344.933594 220.09375c-6.132813-.070312-12.058594-2.253906-16.773438-6.179688-9.007812-7.695312-14.542968-18.695312-15.359375-30.515624-1.027343-9.566407.902344-19.214844 5.527344-27.648438 4.308594-8.15625 12.332031-13.6875 21.484375-14.8125 6.9375-.605469 13.832031 1.558594 19.175781 6.019531.808594.640625 1.5 1.421875 2.039063 2.304688 2.339844 3.746093 1.550781 8.648437-1.847656 11.472656-3.398438 2.820313-8.363282 2.695313-11.613282-.296875-1.730468-1.386719-3.917968-2.074219-6.128906-1.925781-3.417969.707031-6.3125 2.964843-7.828125 6.109375-2.777344 5.273437-3.90625 11.257812-3.242187 17.179687.445312 7.015625 3.570312 13.589844 8.730468 18.359375 1.816406 1.59375 4.183594 2.414063 6.59375 2.289063 2.503906-.382813 4.753906-1.734375 6.269532-3.761719 4.042968-5.613281 5.769531-12.570312 4.8125-19.421875-1.3125-4.746094 1.445312-9.660156 6.175781-11.015625 2.238281-.660156 4.644531-.402344 6.683593.722656 2.042969 1.125 3.550782 3.019532 4.183594 5.261719.289063 1.09375.476563 2.210937.558594 3.335937 1.445312 11.523438-1.707031 23.148438-8.777344 32.363282-4.484375 5.675781-11.0625 9.3125-18.253906 10.089844-.820312.035156-1.625.070312-2.410156.070312zm0 0"/><path d="m289.132812 273.652344c-8.355468-.210938-16.195312-4.105469-21.414062-10.636719-4.222656-4.835937-7.285156-10.574219-8.941406-16.773437-.871094-2.980469-1.460938-6.03125-1.765625-9.121094-1.109375-9.605469.800781-19.324219 5.464843-27.796875 4.300782-8.15625 12.296876-13.71875 21.441407-14.910157 6.601562-.546874 13.171875 1.386719 18.421875 5.429688 3.925781 2.894531 4.761718 8.421875 1.867187 12.34375-2.894531 3.925781-8.421875 4.761719-12.34375 1.867188-1.753906-1.457032-3.992187-2.195313-6.269531-2.0625-3.421875.746093-6.3125 3.023437-7.835938 6.175781-2.769531 5.242187-3.882812 11.203125-3.1875 17.09375.199219 2.027343.59375 4.03125 1.171876 5.984375.960937 3.738281 2.773437 7.203125 5.296874 10.125 2.035157 2.859375 5.320313 4.566406 8.828126 4.597656 6.179687-.609375 12.289062-10.328125 11.070312-23.304688-.113281-.980468-.167969-1.492187-.246094-1.941406-.960937-4.230468 1.296875-8.527344 5.324219-10.144531 4.023437-1.613281 8.625-.0625 10.855469 3.65625l.042968.078125c.496094.835938.847657 1.75 1.042969 2.703125.203125 1.03125.335938 2.03125.449219 3.082031 0 .050782.105469.882813.105469.882813 2.085937 22.164062-9.710938 40.84375-26.921875 42.519531-.847656.105469-1.652344.152344-2.457032.152344zm0 0"/><path d="m320.585938 246.410156c-7.785157-.953125-14.648438-5.574218-18.457032-12.429687l-.183594-.265625c-5.027343-7.253906-9.34375-14.976563-12.890624-23.058594-7.574219-16.886719-14.203126-34.183594-19.863282-51.808594-1.050781-3.035156-.371094-6.40625 1.78125-8.796875 2.148438-2.390625 5.429688-3.421875 8.558594-2.691406 3.132812.726563 5.621094 3.097656 6.496094 6.191406 5.445312 16.914063 11.800781 33.523438 19.042968 49.753907 3.089844 7.078124 6.851563 13.84375 11.234376 20.207031.1875.253906.355468.511719.511718.777343.894532 1.242188 1.90625 2.394532 3.019532 3.441407 2.839843-6.910157 4.542968-14.234375 5.042968-21.691407.359375-3.148437 2.382813-5.859374 5.300782-7.105468 2.914062-1.246094 6.273437-.832032 8.800781 1.082031 2.523437 1.914063 3.832031 5.035156 3.417969 8.179687-2.9375 23.949219-8.382813 35.257813-18.191407 37.808594-1.183593.285156-2.402343.421875-3.621093.40625zm0 0"/><path d="m385.71875 211.089844c-2.207031.007812-4.332031-.820313-5.953125-2.3125-25.546875-23.347656-39.722656-64.441406-40.277344-66.207032-1.015625-2.988281-.359375-6.289062 1.722657-8.660156 2.078124-2.371094 5.265624-3.453125 8.359374-2.835937 3.09375.613281 5.621094 2.832031 6.636719 5.820312.132813.378907 13.3125 38.59375 35.46875 58.851563 2.683594 2.460937 3.578125 6.3125 2.261719 9.703125-1.316406 3.394531-4.582031 5.628906-8.21875 5.632812zm0 0"/></g></svg>