<?xml version="1.0" encoding="iso-8859-1"?>
<!-- Generator: Adobe Illustrator 19.0.0, SVG Export Plug-In . SVG Version: 6.00 Build 0)  -->
<svg version="1.1" id="Capa_1" xmlns="http://www.w3.org/2000/svg" xmlns:xlink="http://www.w3.org/1999/xlink" x="0px" y="0px"
	 viewBox="0 0 509.013 509.013" style="enable-background:new 0 0 509.013 509.013;" xml:space="preserve">
<polygon style="fill:#F8B64C;" points="324.661,268.178 324.661,384.338 185.931,384.338 183.424,268.178 "/>
<polygon style="fill:#4CDBC4;" points="318.507,376.104 306.891,505.181 202.037,505.181 189.173,376.104 "/>
<polygon style="fill:#FF7058;" points="281.931,505.181 226.133,505.181 237.12,412.701 238.293,403.197 269.76,403.197 
	270.933,412.808 "/>
<g>
	<path style="fill:#334A5E;" d="M509.013,442.141v63.04H306.891l7.147-78.933l3.733-41.92l0.736-8.224l0.96-10.24l5.109-56.736
		l0.117-0.32l9.589,3.413l8.64,3.093l102.837,36.907C483.627,365.864,509.013,401.821,509.013,442.141"/>
	<path style="fill:#334A5E;" d="M202.037,505.181H0v-61.76c0-40.32,25.387-76.373,63.253-89.931l102.827-36.907l0.117-0.107
		l18.133-6.496l0.107,0.107l5.984,66.016l0.736,8.224l3.744,41.067L202.037,505.181z"/>
</g>
<g style="opacity:0.1;">
	<g>
		<polygon style="fill:#40596B;" points="324.64,268.178 324.619,309.085 264.437,357.608 215.328,316.541 247.093,268.178 		"/>
	</g>
</g>
<g>
	<path style="fill:#F8B64C;" d="M184.48,186.312c1.568,17.867-7.104,33.227-19.36,34.304c-12.267,1.077-23.477-12.544-25.035-30.421
		c-1.568-17.867,7.104-33.227,19.36-34.293C171.712,154.824,182.912,168.456,184.48,186.312"/>
	<path style="fill:#F8B64C;" d="M368.011,190.205c-1.579,17.867-12.768,31.488-25.045,30.411
		c-12.245-1.067-20.928-16.427-19.349-34.293c1.557-17.877,12.757-31.488,25.024-30.421
		C360.907,156.968,369.579,172.338,368.011,190.205"/>
</g>
<path style="fill:#FFD15C;" d="M254.048,37.128c-56.928,0-103.083,46.155-103.083,103.083v30.944c0,7.893,0.491,15.787,1.472,23.605
	v0.043c4.896,40.043,22.133,77.557,49.355,107.339l9.771,10.709c8.981,9.845,21.675,15.456,34.997,15.456h14.933
	c13.312,0,26.016-5.6,34.997-15.435l9.813-10.731c27.221-29.781,44.459-67.339,49.397-107.371
	c0.981-7.851,1.429-15.712,1.429-23.605v-30.944C357.131,83.282,310.965,37.128,254.048,37.128z"/>
<g>
	<polygon style="fill:#F2F2F2;" points="254.048,366.045 324.64,308.765 313.995,426.237 	"/>
	<polygon style="fill:#F2F2F2;" points="253.963,366.045 184.363,309.97 194.016,426.237 	"/>
</g>
<g>
	<polygon style="fill:#3DC9AE;" points="400.96,431.901 364.8,505.181 306.891,505.181 324.704,308.808 334.293,312.221 
		342.827,315.197 342.933,315.314 388.16,362.034 351.371,395.624 	"/>
	<polygon style="fill:#3DC9AE;" points="202.037,505.181 143.573,505.181 108.053,433.181 157.653,396.808 120.853,363.197 
		166.069,316.584 166.187,316.488 184.32,309.981 184.32,310.408 	"/>
</g>
<rect x="231.566" y="375.354" transform="matrix(-0.7071 -0.7071 0.7071 -0.7071 152.3669 858.7694)" style="fill:#FF7058;" width="44.949" height="44.949"/>
<path style="fill:#334A5E;" d="M355.936,166.6c6.325-9.109,11.936-40.405,11.936-40.405c17.856-51.008-48.704-92.235-48.704-92.235
	C197.216-38.883,175.2,43.261,175.2,43.261c-61.824,19.488-34.72,88.085-34.72,88.085c0.843,27.093,11.008,34.72,11.008,34.72
	s2.315-11.584,4.875-20.053c2.336-7.733,4.427-15.541,5.472-23.541c2.581-19.765,11.595-51.168,43.008-41.099
	c0,0,30.667,8.64,55.893,0c0,0,29.291-3.584,61.269,15.36c10.187,6.037,17.397,16.373,19.456,28.053
	c0.501,2.837,1.205,5.856,2.229,8.875c2.027,6.101,3.691,12.32,4.416,18.709C349.472,164.498,355.936,166.6,355.936,166.6"/>
<g>
</g>
<g>
</g>
<g>
</g>
<g>
</g>
<g>
</g>
<g>
</g>
<g>
</g>
<g>
</g>
<g>
</g>
<g>
</g>
<g>
</g>
<g>
</g>
<g>
</g>
<g>
</g>
<g>
</g>
</svg>
