<?xml version="1.0" encoding="iso-8859-1"?>
<!-- Generator: Adobe Illustrator 19.0.0, SVG Export Plug-In . SVG Version: 6.00 Build 0)  -->
<svg version="1.1" id="Layer_1" xmlns="http://www.w3.org/2000/svg" xmlns:xlink="http://www.w3.org/1999/xlink" x="0px" y="0px"
	 viewBox="0 0 512.001 512.001" style="enable-background:new 0 0 512.001 512.001;" xml:space="preserve">
<g>
	<g>
		<path d="M405.668,0c-23.273,0-42.141,18.868-42.141,42.141c0,23.312,18.932,42.141,42.141,42.141
			c23.049,0,42.141-18.681,42.141-42.141C447.809,18.868,428.941,0,405.668,0z"/>
	</g>
</g>
<g>
	<g>
		<path d="M508.944,294.969V145.591c-0.133-26.399-22.469-47.877-48.868-47.877h-20.841c-2.352,6.147-22.365,58.428-25.205,65.851
			l5.943-27.994c0.417-1.966,0.115-4.016-0.854-5.777l-8.161-14.842l7.255-13.195c1.08-1.965-0.344-4.377-2.588-4.377h-19.913
			c-2.242,0-3.67,2.409-2.588,4.377l7.255,13.195l-8.191,14.898c-0.95,1.728-1.26,3.735-0.876,5.669l5.196,28.047
			c-2.604-6.676-22.124-58.617-24.945-65.851h-20.644c-26.399,0-48.735,21.478-48.868,47.877v149.379
			c-0.057,11.23,9.001,20.379,20.23,20.435c0.036,0,0.07,0,0.105,0c11.182,0,20.275-9.037,20.331-20.231v-149.38
			c0.011-2.166,2.522-3.913,4.687-3.907s3.916,1.762,3.916,3.927c0.001,49.705,0.009,332.104,0.009,341.786
			c0,13.475,10.924,24.399,24.399,24.399c13.475,0,24.401-10.924,24.401-24.399V292.572h10.535v195.029
			c0,13.475,10.924,24.399,24.399,24.399c13.475,0,24.401-10.924,24.401-24.399c0-323.222-0.434-137.294-0.443-342.838
			c0-2.368,1.919-4.289,4.288-4.289c2.283-0.001,4.66,1.836,4.223,5.321v149.379c0.035,6.979,4.334,13.118,9.71,16.753v21.606
			h-0.639c-5.111,0-9.255,4.144-9.255,9.255v76.683c0,5.111,4.144,9.255,9.255,9.255h22.287c5.111,0,9.255-4.144,9.255-9.255
			v-76.683c0-4.767-3.606-8.69-8.238-9.197v-21.618C505.381,308.306,508.979,302.055,508.944,294.969z"/>
	</g>
</g>
<g>
	<g>
		<circle cx="132.844" cy="48.73" r="41.547"/>
	</g>
</g>
<g>
	<g>
		<path d="M261.133,332.533v-22.19c7.068-5.266,10.063-14.774,6.689-23.375c-0.394-1.004-39.55-100.925-53.891-142.655
			c-8.25-24.008-22.191-40.791-47.46-40.791l-25.695,67.13l6.171-29.067c0.411-1.936,0.113-3.955-0.841-5.689l-8.044-14.63
			l7.138-12.981c1.064-1.935-0.338-4.31-2.549-4.31h-19.61c-2.207,0-3.615,2.373-2.549,4.31l7.152,13.008l-8.058,14.657
			c-0.935,1.702-1.241,3.678-0.863,5.582l4.851,29.12l-24.35-67.128c-25.237,0-39.196,16.731-47.464,40.791
			C37.345,186.261,4.61,275.822,4.281,276.722c-3.802,10.399,1.546,21.911,11.944,25.713c10.399,3.803,21.912-1.547,25.713-11.944
			c0.279-0.763,39.843-110.533,39.843-110.533s-9.5,50.881-28.476,149.293c-1.336,6.896,3.98,13.268,10.934,13.268
			c4.318,0,9.499,0,15.299,0v145.424c0,13.287,10.77,24.058,24.058,24.058s24.058-10.771,24.058-24.058V342.519
			c3.458,0,6.929,0,10.387,0v145.424c0,13.287,10.77,24.058,24.058,24.058c13.288,0,24.058-10.771,24.058-24.058V342.519
			c5.801,0,10.981,0,15.298,0c6.99,0,12.268-6.38,10.934-13.268c-16.481-85.001-27.404-140.532-28.559-149.974
			c17.285,47.354,45.284,118.804,46.666,122.328c1.677,4.276,4.666,7.642,8.32,9.842v21.029h-0.629c-5.033,0-9.114,4.08-9.114,9.114
			v75.514c0,5.033,4.08,9.114,9.114,9.114h21.947c5.033,0,9.114-4.08,9.114-9.114V341.59
			C269.246,336.894,265.695,333.032,261.133,332.533z"/>
	</g>
</g>
<g>
</g>
<g>
</g>
<g>
</g>
<g>
</g>
<g>
</g>
<g>
</g>
<g>
</g>
<g>
</g>
<g>
</g>
<g>
</g>
<g>
</g>
<g>
</g>
<g>
</g>
<g>
</g>
<g>
</g>
</svg>
