<svg id="Line" enable-background="new 0 0 96 96" height="512" viewBox="0 0 96 96" width="512" xmlns="http://www.w3.org/2000/svg"><path d="m76 3h-40c-1.105 0-2 .895-2 2v88h44v-88c0-1.105-.895-2-2-2z" fill="#ef6662"/><path d="m18 31c-.552 0-1-.448-1-1v-12c0-.552.448-1 1-1s1 .448 1 1v12c0 .552-.448 1-1 1z" fill="#316596"/><path d="m34 29v64h-29c-1.105 0-2-.895-2-2v-60c0-1.105.895-2 2-2z" fill="#f2be07"/><g fill="#efefef"><path d="m8 34h8v8h-8z"/><path d="m21 34h8v8h-8z"/><path d="m8 47h8v8h-8z"/><path d="m21 47h8v8h-8z"/><path d="m8 60h8v8h-8z"/><path d="m21 60h8v8h-8z"/><path d="m39 8h8v8h-8z"/><path d="m52 8h8v8h-8z"/><path d="m65 8h8v8h-8z"/><path d="m39 21h8v8h-8z"/><path d="m52 21h8v8h-8z"/><path d="m65 21h8v8h-8z"/><path d="m39 34h8v8h-8z"/><path d="m52 34h8v8h-8z"/><path d="m65 34h8v8h-8z"/><path d="m39 47h8v8h-8z"/><path d="m52 47h8v8h-8z"/><path d="m65 47h8v8h-8z"/></g><path d="m82 70c-.552 0-1-.448-1-1v-3c0-1.654-1.346-3-3-3h-6c-1.654 0-3 1.346-3 3v3c0 .552-.448 1-1 1s-1-.448-1-1v-3c0-2.757 2.243-5 5-5h6c2.757 0 5 2.243 5 5v3c0 .552-.448 1-1 1z" fill="#316596"/><path d="m91 93h-32c-1.105 0-2-.895-2-2v-20c0-1.105.895-2 2-2h32c1.105 0 2 .895 2 2v20c0 1.105-.895 2-2 2z" fill="#316596"/><path d="m91 93h-32c-1.105 0-2-.895-2-2v-12h36v12c0 1.105-.895 2-2 2z" fill="#6ebaed"/><path d="m64 77h4v5h-4z" fill="#316596"/><path d="m82 77h4v5h-4z" fill="#316596"/><path d="m63 93c0-3.316-2.684-6-6-6v4c0 1.105.895 2 2 2z" fill="#f2be07"/><path d="m87 93c0-3.316 2.684-6 6-6v4c0 1.105-.895 2-2 2z" fill="#f2be07"/><path d="m16.971 7.757c.428-.428 1.139-.381 1.511.097 2.74 3.53 2.489 8.631-.754 11.874s-8.343 3.494-11.874.754c-.478-.371-.526-1.082-.097-1.511z" fill="#3ba1e3"/><path d="m40 93v-20c0-1.105.895-2 2-2h8c1.105 0 2 .895 2 2v20h-8z" fill="#316596"/><path d="m68 76h-4c-.552 0-1 .448-1 1v5c0 .552.448 1 1 1h1v2c0 .552.448 1 1 1s1-.448 1-1v-2h1c.552 0 1-.448 1-1v-5c0-.552-.448-1-1-1zm-1 5h-2v-3h2z" fill="#f2be07"/><path d="m86 76h-4c-.552 0-1 .448-1 1v5c0 .552.448 1 1 1h1v2c0 .552.448 1 1 1s1-.448 1-1v-2h1c.552 0 1-.448 1-1v-5c0-.552-.448-1-1-1zm-1 5h-2v-3h2z" fill="#f2be07"/><circle cx="42" cy="67" fill="#e05551" r="1"/><circle cx="46" cy="67" fill="#e05551" r="1"/><circle cx="50" cy="67" fill="#e05551" r="1"/></svg>