<?xml version="1.0" encoding="iso-8859-1"?>
<!-- Generator: Adobe Illustrator 19.0.0, SVG Export Plug-In . SVG Version: 6.00 Build 0)  -->
<svg version="1.1" id="Capa_1" xmlns="http://www.w3.org/2000/svg" xmlns:xlink="http://www.w3.org/1999/xlink" x="0px" y="0px"
	 viewBox="0 0 436.907 436.907" style="enable-background:new 0 0 436.907 436.907;" xml:space="preserve">
<circle style="fill:#334D5C;" cx="218.453" cy="218.453" r="218.453"/>
<g style="opacity:0.1;">
	<path d="M435.034,246.647L278.84,90.453H150.05l-32.002,26.492h0.358l-0.358,0.3v192.786L243.457,435.44
		C343.045,424.085,422.249,345.794,435.034,246.647z"/>
</g>
<polyline style="fill:#EBF0F3;" points="118.048,117.245 118.048,310.031 278.84,310.031 278.84,90.453 150.05,90.453 "/>
<polygon style="fill:#D5D6DB;" points="150.05,90.453 150.05,116.945 118.048,116.945 "/>
<rect x="231.936" y="120.972" style="fill:#1C75A1;" width="32.748" height="42.424"/>
<g>
	<rect x="135.537" y="132.881" style="fill:#D5D6DB;" width="67.359" height="14.886"/>
	<rect x="135.537" y="155.959" style="fill:#D5D6DB;" width="67.359" height="14.886"/>
	<rect x="135.537" y="179.026" style="fill:#D5D6DB;" width="67.359" height="14.886"/>
	<rect x="135.543" y="202.1" style="fill:#D5D6DB;" width="129.133" height="14.886"/>
	<rect x="135.543" y="225.15" style="fill:#D5D6DB;" width="129.133" height="14.886"/>
	<rect x="135.543" y="248.214" style="fill:#D5D6DB;" width="129.133" height="14.886"/>
	<rect x="135.543" y="271.288" style="fill:#D5D6DB;" width="129.133" height="14.886"/>
</g>
<rect x="236.4" y="187.102" transform="matrix(-0.7638 -0.6455 0.6455 -0.7638 268.9209 623.689)" style="fill:#F6C358;" width="24.361" height="151.074"/>
<rect x="237.819" y="183.268" transform="matrix(-0.7638 -0.6455 0.6455 -0.7638 263.4409 614.0157)" style="fill:#FCD462;" width="12.503" height="151.074"/>
<rect x="287.648" y="198.115" transform="matrix(-0.7638 -0.6455 0.6455 -0.7638 398.4701 549.7618)" style="fill:#E1E6E9;" width="24.361" height="7.711"/>
<rect x="298.56" y="202.113" transform="matrix(-0.7638 -0.6455 0.6455 -0.7638 404.2255 559.8634)" style="fill:#D5D6DB;" width="11.988" height="7.711"/>
<path style="fill:#E56353;" d="M317.526,194.08l-12.866-10.873c-1.585-1.34-3.956-1.141-5.296,0.445l-6.357,7.522l18.607,15.724
	l6.357-7.522C319.311,197.79,319.111,195.419,317.526,194.08z"/>
<path style="fill:#D15241;" d="M317.526,194.08l-6.532-5.52l-8.782,10.392l9.402,7.946l6.357-7.522
	C319.311,197.79,319.111,195.419,317.526,194.08z"/>
<polyline style="fill:#D5D6DB;" points="209.116,328.187 177.732,346.453 190.509,312.463 "/>
<polygon style="fill:#E1E6E9;" points="190.509,312.463 177.732,346.453 200.06,320.534 "/>
<polygon style="fill:#3A556A;" points="177.732,346.453 180.69,338.435 185.102,342.163 "/>
<g>
</g>
<g>
</g>
<g>
</g>
<g>
</g>
<g>
</g>
<g>
</g>
<g>
</g>
<g>
</g>
<g>
</g>
<g>
</g>
<g>
</g>
<g>
</g>
<g>
</g>
<g>
</g>
<g>
</g>
</svg>
