<svg height="512pt" viewBox="-99 0 512 512" width="512pt" xmlns="http://www.w3.org/2000/svg"><path d="m307.082031 165.6875h-215.871093l-37.910157-86.9375h215.871094zm0 0" fill="#eeedee"/><path d="m269.171875 78.75h-32l37.910156 86.9375h32zm0 0" fill="#d6d6d6"/><path d="m53.300781 78.75-45.800781 86.9375h83.683594zm0 0" fill="#cfcfcf"/><path d="m283.316406 504.5h-192.132812v-339.46875h215.898437v315.703125c0 13.125-10.640625 23.765625-23.765625 23.765625zm0 0" fill="#dbdbdb"/><path d="m275.082031 165.03125v315.703125c0 13.125-10.640625 23.765625-23.765625 23.765625h32c13.125 0 23.765625-10.640625 23.765625-23.765625v-315.703125zm0 0" fill="#d1d1d1"/><path d="m91.183594 504.5h-59.917969c-13.125 0-23.765625-10.640625-23.765625-23.765625v-315.703125h83.683594zm0 0" fill="#bfbfbf"/><path d="m219.757812 118.769531c0-8.125-9.234374-14.707031-20.625-14.707031-11.390624 0-20.625 6.582031-20.625 14.707031 0 8.121094 9.234376 14.707031 20.625 14.707031 11.390626 0 20.625-6.585937 20.625-14.707031zm0 0" fill="#b0b0b0"/><path d="m7.5 275h83.683594v131.683594h-83.683594zm0 0" fill="#528fc2"/><path d="m91.183594 275h215.898437v131.683594h-215.898437zm0 0" fill="#5b9ed6"/><path d="m275.082031 275h32v131.683594h-32zm0 0" fill="#4f89ba"/><path d="m222.863281 351.359375c0 13.109375-10.625 23.734375-23.730469 23.734375-13.105468 0-23.730468-10.625-23.730468-23.734375 0-13.105469 23.730468-44.765625 23.730468-44.765625s23.730469 31.660156 23.730469 44.765625zm0 0" fill="#ebebeb"/><path d="m255.921875 7.5h-189.371094c-7.320312 0-13.25 5.933594-13.25 13.25v58h215.871094v-58c0-7.316406-5.933594-13.25-13.25-13.25zm0 0" fill="#919191"/><path d="m255.921875 7.5h-30.234375c7.320312 0 13.25 5.933594 13.25 13.25v58h30.234375v-58c0-7.316406-5.933594-13.25-13.25-13.25zm0 0" fill="#7a7a7a"/><path d="m276.671875 77.183594v-56.433594c0-11.441406-9.3125-20.75-20.75-20.75h-28.789063c-4.140624 0-7.5 3.359375-7.5 7.5s3.359376 7.5 7.5 7.5h28.789063c3.167969 0 5.75 2.578125 5.75 5.75v50.5h-200.871094v-50.5c0-3.171875 2.578125-5.75 5.75-5.75h132.582031c4.140626 0 7.5-3.359375 7.5-7.5s-3.359374-7.5-7.5-7.5h-132.582031c-11.441406 0-20.75 9.308594-20.75 20.75v56.144531c-48.09375 91.289063-45.300781 85.726563-45.621093 87.167969-.1250005.574219-.179688 1.183594-.179688 1.621094v315.050781c0 17.238281 14.027344 31.265625 31.265625 31.265625h252.050781c17.242188 0 31.269532-14.027344 31.269532-31.265625 0-14.953125 0-302.71875 0-315.050781-.269532-3.5 2.191406 3.964844-37.914063-88.5zm-261.671875 96.003906h68.683594v94.3125h-68.683594zm0 109.3125h68.683594v116.683594h-68.683594zm83.683594-109.3125h200.898437v94.3125h-200.898437zm165.574218-86.9375 31.371094 71.9375h-199.507812l-31.371094-71.9375zm-211.597656 9.804688 27.074219 62.132812h-59.804687zm-37.660156 384.679687v-66.550781h68.683594v82.816406h-52.417969c-8.96875 0-16.265625-7.296875-16.265625-16.265625zm268.316406 16.265625h-184.632812v-82.816406h137.050781c4.140625 0 7.5-3.355469 7.5-7.5 0-4.140625-3.359375-7.5-7.5-7.5h-137.050781v-116.683594h200.898437v116.683594h-35.847656c-4.140625 0-7.5 3.359375-7.5 7.5 0 4.144531 3.359375 7.5 7.5 7.5h35.847656v66.550781c0 8.96875-7.296875 16.265625-16.265625 16.265625zm0 0"/><path d="m199.132812 140.976562c15.769532 0 28.125-9.753906 28.125-22.207031s-12.355468-22.207031-28.125-22.207031c-15.769531 0-28.125 9.753906-28.125 22.207031s12.355469 22.207031 28.125 22.207031zm0-29.414062c7.390626 0 13.125 3.875 13.125 7.207031s-5.734374 7.207031-13.125 7.207031c-7.390624 0-13.125-3.875-13.125-7.207031s5.734376-7.207031 13.125-7.207031zm0 0"/><path d="m193.132812 302.09375c-4.214843 5.621094-25.230468 34.414062-25.230468 49.265625 0 17.222656 14.007812 31.234375 31.230468 31.234375 17.222657 0 31.230469-14.011719 31.230469-31.234375 0-14.851563-21.015625-43.644531-25.226562-49.265625-3.003907-4.003906-9.011719-3.996094-12.003907 0zm6 65.5c-8.949218 0-16.230468-7.285156-16.230468-16.234375 0-5.316406 7.628906-19.175781 16.234375-31.84375 8.597656 12.660156 16.226562 26.515625 16.226562 31.84375 0 8.949219-7.28125 16.234375-16.230469 16.234375zm0 0"/></svg>