<svg height="512pt" viewBox="-84 0 512 512" width="512pt" xmlns="http://www.w3.org/2000/svg"><path d="m333.3125 354.460938c7.113281-7.953126 11.304688-18.402344 11.304688-29.539063 0-14.996094-7.601563-28.742187-19.695313-36.835937v-80.449219c0-22.875-7.730469-45.417969-21.777344-63.472657l-50.257812-64.617187c-2.796875-3.597656-7.097657-5.699219-11.65625-5.699219h-137.847657c-4.554687 0-8.859374 2.101563-11.65625 5.699219l-50.257812 64.617187c-14.042969 18.054688-21.777344 40.597657-21.777344 63.472657v80.449219c-12.089844 8.09375-19.691406 21.839843-19.691406 36.835937 0 11.136719 4.191406 21.585937 11.300781 29.539063-7.109375 7.957031-11.300781 18.402343-11.300781 29.539062s4.191406 21.582031 11.300781 29.539062c-7.109375 7.953126-11.300781 18.402344-11.300781 29.539063 0 15.882813 8.484375 30.3125 21.804688 38.167969 5.75 18.023437 22.589843 30.753906 42.195312 30.753906h216.617188c19.601562 0 36.441406-12.730469 42.195312-30.753906 13.320312-7.855469 21.804688-22.285156 21.804688-38.167969 0-11.136719-4.191407-21.585937-11.304688-29.539063 7.113281-7.957031 11.304688-18.402343 11.304688-29.539062s-4.191407-21.582031-11.304688-29.539062zm-57.621094 54.15625c0 21.714843-17.667968 39.382812-39.382812 39.382812-21.71875 0-39.386719-17.667969-39.386719-39.382812v-187.078126c0-21.71875 17.667969-39.386718 39.386719-39.386718 21.714844 0 39.382812 17.667968 39.382812 39.386718zm0 0" fill="#fcf2b6"/><path d="m132.921875 201.847656h-98.460937c-8.15625 0-14.769532 6.609375-14.769532 14.769532v78.765624c0 8.160157 6.613282 14.769532 14.769532 14.769532h98.460937c8.15625 0 14.769531-6.609375 14.769531-14.769532v-78.765624c0-8.160157-6.613281-14.769532-14.769531-14.769532zm0 0" fill="#ffa000"/><path d="m152.617188 369.230469h-68.925782c-8.15625 0-14.769531-6.613281-14.769531-14.769531s6.613281-14.769532 14.769531-14.769532h68.925782c8.15625 0 14.765624 6.613282 14.765624 14.769532s-6.609374 14.769531-14.765624 14.769531zm0 0" fill="#fdd835"/><path d="m152.617188 428.308594h-68.925782c-8.15625 0-14.769531-6.613282-14.769531-14.769532s6.613281-14.769531 14.769531-14.769531h68.925782c8.15625 0 14.765624 6.613281 14.765624 14.769531s-6.609374 14.769532-14.765624 14.769532zm0 0" fill="#fdd835"/><path d="m241.230469 0h-137.847657c-24.429687 0-44.304687 19.875-44.304687 44.308594v14.769531c0 24.429687 19.875 44.304687 44.304687 44.304687h137.847657c24.429687 0 44.308593-19.875 44.308593-44.304687v-14.769531c0-24.433594-19.878906-44.308594-44.308593-44.308594zm0 0" fill="#5f69e3"/><path d="m333.3125 354.460938c7.113281-7.953126 11.304688-18.402344 11.304688-29.539063 0-14.996094-7.601563-28.742187-19.695313-36.835937v-80.449219c0-22.875-7.730469-45.417969-21.777344-63.472657l-50.257812-64.617187c-2.796875-3.597656-7.097657-5.699219-11.65625-5.699219h-68.921875v438.152344h108.308594c19.601562 0 36.441406-12.730469 42.195312-30.753906 13.320312-7.855469 21.804688-22.285156 21.804688-38.167969 0-11.136719-4.191407-21.585937-11.304688-29.539063 7.113281-7.957031 11.304688-18.402343 11.304688-29.539062s-4.191407-21.582031-11.304688-29.539062zm-57.621094 54.15625c0 21.714843-17.667968 39.382812-39.382812 39.382812-21.71875 0-39.386719-17.667969-39.386719-39.382812v-187.078126c0-21.71875 17.667969-39.386718 39.386719-39.386718 21.714844 0 39.382812 17.667968 39.382812 39.386718zm0 0" fill="#ffde91"/><path d="m241.230469 0h-68.921875v103.382812h68.921875c24.429687 0 44.308593-19.875 44.308593-44.304687v-14.769531c0-24.433594-19.878906-44.308594-44.308593-44.308594zm0 0" fill="#3440db"/></svg>