<?xml version="1.0" encoding="iso-8859-1"?>
<!-- Generator: Adobe Illustrator 19.0.0, SVG Export Plug-In . SVG Version: 6.00 Build 0)  -->
<svg version="1.1" id="Capa_1" xmlns="http://www.w3.org/2000/svg" xmlns:xlink="http://www.w3.org/1999/xlink" x="0px" y="0px"
	 viewBox="0 0 491.521 491.521" style="enable-background:new 0 0 491.521 491.521;" xml:space="preserve">
<circle style="fill:#E05B49;" cx="245.76" cy="245.76" r="245.76"/>
<path style="opacity:0.1;enable-background:new    ;" d="M296.601,124.262c-13.516-11.981-31.334-19.302-50.841-19.302
	c-42.342,0-76.646,34.355-76.646,76.698c0,31.232,18.688,58.061,45.465,69.99v5.632l-0.051,0.102l-10.24,14.951
	c-0.051,0-0.051,0.051-0.051,0.051l-9.933,8.755c-6.912,6.093-15.206,10.342-24.217,12.442l-10.956,2.509
	c-28.467,7.168-32.769,35.175-32.769,35.175l-10.649,55.296l103.512,103.512c8.72,0.937,17.567,1.448,26.536,1.448
	c113.304,0,208.641-76.698,237.071-180.99L303.258,130.918C301.159,128.563,298.957,126.31,296.601,124.262z"/>
<polygon style="fill:#EBF0F3;" points="250.331,386.56 255.048,371.154 282.551,292.939 284.142,273.541 272.955,257.182 
	214.643,257.182 200.048,278.701 220.306,386.56 "/>
<rect x="214.56" y="235.62" style="fill:#F6C358;" width="58.47" height="50.652"/>
<polygon style="fill:#E56353;" points="233.46,286.253 225.86,297.79 233.46,309.327 254.136,309.327 261.737,297.79 
	254.136,286.253 "/>
<g>
	<polygon style="fill:#E1E6E9;" points="203.454,273.542 214.644,257.182 237.551,286.179 219.076,318.551 	"/>
	<polygon style="fill:#E1E6E9;" points="287.252,272.334 272.953,257.182 250.045,286.179 266.293,314.647 	"/>
</g>
<polygon style="fill:#D15241;" points="263.979,386.56 254.137,309.327 233.461,309.327 223.614,386.56 "/>
<path style="fill:#3A556A;" d="M365.144,331.268c0,0-4.274-28.027-32.773-35.153l-10.965-2.536
	c-8.971-2.077-17.288-6.357-24.195-12.455l-9.958-8.79l-0.332,1.051L248.63,386.56h127.172L365.144,331.268z"/>
<path style="fill:#2F4859;" d="M255.557,386.56c13.406-24.321,31.263-52.439,48.043-65.07c0,0-5.659-6.494-15.168-10.838
	c0,0,14.297-3.568,19.302-7.854c0,0-9.369-21.031-20.48-30.465c0,0-33.916,61.628-47.539,114.226h15.842V386.56z"/>
<path style="fill:#3A556A;" d="M204.599,273.385l-0.332-1.051l-9.958,8.79c-6.907,6.098-15.224,10.378-24.2,12.455l-10.96,2.536
	c-28.499,7.126-32.773,35.153-32.773,35.153l-10.658,55.292H242.89L204.599,273.385z"/>
<path style="fill:#2F4859;" d="M235.961,386.56c-13.406-24.321-31.263-52.439-48.043-65.07c0,0,5.659-6.494,15.168-10.838
	c0,0-14.297-3.568-19.302-7.854c0,0,9.369-21.031,20.48-30.465c0,0,33.916,61.628,47.539,114.226h-15.842V386.56z"/>
<ellipse style="fill:#FCD462;" cx="245.76" cy="181.65" rx="76.64" ry="76.69"/>
<ellipse style="fill:#F6C358;" cx="245.76" cy="181.65" rx="63.852" ry="63.898"/>
<path style="fill:#DC8744;" d="M243.126,231.378v-8.757c-10.956-1.118-20.791-5.477-29.494-13.073l8.752-10.437
	c6.712,5.838,13.62,9.314,20.742,10.437v-23.275c-9.034-2.158-15.649-4.999-19.845-8.518c-4.195-3.52-6.293-8.738-6.293-15.655
	s2.41-12.575,7.249-16.978c4.839-4.398,11.132-6.795,18.888-7.195v-5.999h7.669v6.117c8.791,0.644,17.103,3.642,24.937,9.002
	l-7.795,11.037c-5.278-3.759-10.986-6.077-17.142-6.961v22.553h0.361c9.191,2.163,15.942,5.082,20.254,8.757
	c4.322,3.681,6.478,9.021,6.478,16.016c0,7-2.478,12.702-7.434,17.095c-4.956,4.403-11.503,6.8-19.659,7.2v8.635h-7.668V231.378z
	 M234.667,153.942c-2.039,1.796-3.054,4.037-3.054,6.717s0.8,4.799,2.4,6.356c1.59,1.562,4.634,3.061,9.112,4.501V150.76
	C239.526,151.082,236.706,152.141,234.667,153.942z M259.907,206.546c2.234-1.835,3.356-4.154,3.356-6.956
	c0-2.797-0.878-5.018-2.634-6.658c-1.766-1.64-5.044-3.178-9.834-4.618v21.591C254.629,209.509,257.663,208.386,259.907,206.546z"/>
<g>
</g>
<g>
</g>
<g>
</g>
<g>
</g>
<g>
</g>
<g>
</g>
<g>
</g>
<g>
</g>
<g>
</g>
<g>
</g>
<g>
</g>
<g>
</g>
<g>
</g>
<g>
</g>
<g>
</g>
</svg>
